<svg width="180" height="180" viewBox="0 0 180 180" fill="none" xmlns="http://www.w3.org/2000/svg">
  <!-- Background circle with gradient -->
  <circle cx="90" cy="90" r="90" fill="url(#gradient)" />
  
  <!-- R letter -->
  <path d="M50 45h39c12.4 0 22.5 10.1 22.5 22.5 0 8.4-4.5 15.8-11.2 19.1L111.5 112h-14l-10.1-25.3H62V112h-12V45zm12 12v19.6h28c6.2 0 11.2-5 11.2-11.2s-5-8.4-11.2-8.4H62z" fill="#FEFAE0"/>
  
  <!-- Semicolon -->
  <circle cx="129" cy="62" r="6.7" fill="#FEFAE0"/>
  <path d="M129 84.5c-3.9 0-6.7 2.8-6.7 6.7 0 2.2 1.1 4.5 2.8 5.6L119.5 107h10.1l3.9-10.1c1.7-1.1 2.8-3.4 2.8-5.6 0-3.9-2.8-6.7-6.7-6.7z" fill="#FEFAE0"/>
  
  <defs>
    <linearGradient id="gradient" x1="0%" y1="0%" x2="100%" y2="100%">
      <stop offset="0%" style="stop-color:#D4A373"/>
      <stop offset="25%" style="stop-color:#FAEDCD"/>
      <stop offset="50%" style="stop-color:#CCD5AE"/>
      <stop offset="75%" style="stop-color:#E9EDC9"/>
      <stop offset="100%" style="stop-color:#FEFAE0"/>
    </linearGradient>
  </defs>
</svg>