<svg width="32" height="32" viewBox="0 0 32 32" fill="none" xmlns="http://www.w3.org/2000/svg">
  <!-- Background circle with gradient -->
  <circle cx="16" cy="16" r="16" fill="url(#gradient)"/>
  
  <!-- R letter -->
  <path d="M9 8h7c2.2 0 4 1.8 4 4 0 1.5-.8 2.8-2 3.4L20 20h-2.5l-1.8-4.5H11V20H9V8zm2 2v3.5h5c1.1 0 2-.9 2-2s-.9-1.5-2-1.5h-5z" fill="#FEFAE0"/>
  
  <!-- Semicolon -->
  <circle cx="23" cy="11" r="1.2" fill="#FEFAE0"/>
  <path d="M23 15c-.7 0-1.2.5-1.2 1.2 0 .4.2.8.5 1L21.5 19h1.8l.7-1.8c.3-.2.5-.6.5-1 0-.7-.5-1.2-1.2-1.2z" fill="#FEFAE0"/>
  
  <defs>
    <linearGradient id="gradient" x1="0%" y1="0%" x2="100%" y2="100%">
      <stop offset="0%" style="stop-color:#D4A373"/>
      <stop offset="50%" style="stop-color:#CCD5AE"/>
      <stop offset="100%" style="stop-color:#E9EDC9"/>
    </linearGradient>
  </defs>
</svg>